M48
;Layer_Color=9474304
;FILE_FORMAT=2:5
INCH,TZ
;TYPE=PLATED
T1F00S00C0.02800
T2F00S00C0.03937
T3F00S00C0.04000
T4F00S00C0.05300
T5F00S00C0.05512
%
T01
X91494Y-112205
X148031Y-106299
X137323Y-72441
X127165Y-54331
X126378Y-33071
X115882Y-37402
X105118Y-44882
X102756Y-53150
X80039Y-44756
X167323Y-45669
X177323Y-48425
X186614Y-33071
X225197Y-37008
X231102Y-42126
X237795Y-46850
X241732Y-56949
X238583Y-70472
X231350Y-70205
X307874Y-71788
Y-48482
X290551Y-111811
X305824Y-17405
X306693Y-8662
X225197Y-26772
X217323Y-31496
X207480Y-22441
X197794Y-25353
X112992Y-6919
X87402Y-20866
X90945Y-29134
X64862Y-20866
X29134Y-29921
T02
X163386Y-105118
X171260
X179134
X187008
X209055
X216929
X224803
X232677
X253937
X261811
X269685
X277559
T03
X127323Y-82205
X137323
X147323
X157323
X167323
X177323
X187323
X197323
X207323
X217323
X227323
X237323
X247323
X257323
X267323
X277323
X287323
X297323
Y-12205
X287323
X277323
X267323
X257323
X247323
X237323
X227323
X217323
X207323
X197323
X187323
X177323
X167323
X157323
X147323
X137323
X127323
T04
X6300Y-116535
X18898
Y-100787
X6300
Y-85039
X18898
Y-69291
X6300
Y-53543
X18898
Y-37795
X6300
Y-22047
X18898
Y-6299
X6300
T05
X37047Y-94823
Y-56831
X85039Y-61811
Y-75827
Y-89842
M30
