G04*
G04 #@! TF.GenerationSoftware,Altium Limited,Altium Designer,18.1.7 (191)*
G04*
G04 Layer_Physical_Order=1*
G04 Layer_Color=255*
%FSLAX25Y25*%
%MOIN*%
G70*
G01*
G75*
%ADD10C,0.01000*%
%ADD29R,0.13780X0.10236*%
%ADD30R,0.09843X0.06299*%
%ADD31R,0.05118X0.03937*%
%ADD32R,0.08189X0.11614*%
%ADD33R,0.05551X0.04803*%
%ADD34R,0.02559X0.04724*%
%ADD35R,0.02000X0.08000*%
%ADD36O,0.02000X0.08000*%
%ADD37R,0.03937X0.05118*%
%ADD38C,0.03937*%
%ADD39C,0.03937*%
%ADD40C,0.02000*%
%ADD41C,0.01500*%
%ADD42C,0.07400*%
%ADD43C,0.07950*%
%ADD44R,0.05906X0.05906*%
%ADD45C,0.05906*%
%ADD46C,0.09449*%
%ADD47C,0.05000*%
G36*
X314173Y-122441D02*
X105744D01*
X105744Y-122441D01*
Y-115961D01*
X114386D01*
Y-103724D01*
X105744D01*
Y-96709D01*
X106138D01*
Y-89906D01*
X105744D01*
Y-82677D01*
X105666Y-82287D01*
X105445Y-81956D01*
X105115Y-81735D01*
X104724Y-81658D01*
X87227D01*
X87128Y-81158D01*
X87926Y-80827D01*
X89122Y-79909D01*
X90040Y-78714D01*
X90616Y-77321D01*
X90747Y-76327D01*
X85039D01*
X79331D01*
X79462Y-77321D01*
X80039Y-78714D01*
X80957Y-79909D01*
X82152Y-80827D01*
X82951Y-81158D01*
X82851Y-81658D01*
X77559D01*
X77169Y-81735D01*
X76838Y-81956D01*
X76617Y-82287D01*
X76539Y-82677D01*
Y-109591D01*
X76617Y-109981D01*
X76838Y-110311D01*
X77169Y-110532D01*
X77209Y-110540D01*
Y-115444D01*
X77169Y-115452D01*
X76838Y-115673D01*
X76617Y-116004D01*
X76539Y-116394D01*
Y-122441D01*
X76539Y-122441D01*
X1181D01*
Y-118485D01*
X1681Y-118385D01*
X1954Y-119044D01*
X2751Y-120083D01*
X3791Y-120881D01*
X5001Y-121382D01*
X6300Y-121553D01*
X7598Y-121382D01*
X8809Y-120881D01*
X9848Y-120083D01*
X10645Y-119044D01*
X11147Y-117834D01*
X11318Y-116535D01*
X11147Y-115237D01*
X10645Y-114026D01*
X9848Y-112987D01*
X8809Y-112190D01*
X7598Y-111688D01*
X6300Y-111517D01*
X5001Y-111688D01*
X3791Y-112190D01*
X2751Y-112987D01*
X1954Y-114026D01*
X1681Y-114685D01*
X1181Y-114586D01*
Y-102737D01*
X1681Y-102637D01*
X1954Y-103296D01*
X2751Y-104335D01*
X3791Y-105133D01*
X5001Y-105634D01*
X6300Y-105805D01*
X7598Y-105634D01*
X8809Y-105133D01*
X9848Y-104335D01*
X10645Y-103296D01*
X11147Y-102086D01*
X11318Y-100787D01*
X11147Y-99489D01*
X10645Y-98278D01*
X9848Y-97239D01*
X8809Y-96442D01*
X7598Y-95940D01*
X6300Y-95769D01*
X5001Y-95940D01*
X3791Y-96442D01*
X2751Y-97239D01*
X1954Y-98278D01*
X1681Y-98937D01*
X1181Y-98838D01*
Y-86989D01*
X1681Y-86889D01*
X1954Y-87548D01*
X2751Y-88587D01*
X3791Y-89385D01*
X5001Y-89886D01*
X6300Y-90057D01*
X7598Y-89886D01*
X8809Y-89385D01*
X9848Y-88587D01*
X10645Y-87548D01*
X11147Y-86338D01*
X11318Y-85039D01*
X11147Y-83741D01*
X10847Y-83016D01*
X15550Y-78312D01*
X16011Y-78558D01*
X15975Y-78740D01*
Y-81011D01*
X15349Y-81491D01*
X14552Y-82530D01*
X14051Y-83741D01*
X13880Y-85039D01*
X14051Y-86338D01*
X14552Y-87548D01*
X15349Y-88587D01*
X16389Y-89385D01*
X17599Y-89886D01*
X18898Y-90057D01*
X20196Y-89886D01*
X21407Y-89385D01*
X22446Y-88587D01*
X23243Y-87548D01*
X23745Y-86338D01*
X23916Y-85039D01*
X23745Y-83741D01*
X23243Y-82530D01*
X22446Y-81491D01*
X21407Y-80694D01*
X20196Y-80192D01*
X19544Y-80106D01*
Y-79479D01*
X19722Y-79301D01*
X22305D01*
X22987Y-79165D01*
X23566Y-78778D01*
X29352Y-72992D01*
X29739Y-72413D01*
X29875Y-71730D01*
X29875Y-71730D01*
Y-50109D01*
X36074Y-43910D01*
X39279D01*
X39962Y-43774D01*
X40541Y-43388D01*
X42665Y-41264D01*
X45783D01*
Y-38145D01*
X50091Y-33837D01*
X52547D01*
X52916Y-34337D01*
X52823Y-34803D01*
Y-40803D01*
X52978Y-41583D01*
X53420Y-42245D01*
X54082Y-42687D01*
X54862Y-42842D01*
X55643Y-42687D01*
X56304Y-42245D01*
X56746Y-41583D01*
X56902Y-40803D01*
Y-34803D01*
X56881Y-34698D01*
X57341Y-34452D01*
X57823Y-34934D01*
Y-40803D01*
X57978Y-41583D01*
X58420Y-42245D01*
X59082Y-42687D01*
X59862Y-42842D01*
X60643Y-42687D01*
X61304Y-42245D01*
X61746Y-41583D01*
X61901Y-40803D01*
Y-36130D01*
X62363Y-35939D01*
X62823Y-36398D01*
Y-40803D01*
X62978Y-41583D01*
X63420Y-42245D01*
X64082Y-42687D01*
X64862Y-42842D01*
X65643Y-42687D01*
X66304Y-42245D01*
X66746Y-41583D01*
X66901Y-40803D01*
Y-34803D01*
X66746Y-34023D01*
X66304Y-33361D01*
X65643Y-32919D01*
X64862Y-32764D01*
X64340Y-32868D01*
X59763Y-28291D01*
X59184Y-27905D01*
X58501Y-27769D01*
X45250D01*
X44567Y-27905D01*
X43988Y-28291D01*
X42505Y-29774D01*
X42043Y-29583D01*
Y-27953D01*
X40264D01*
Y-30815D01*
X40811D01*
X41003Y-31277D01*
X37740Y-34539D01*
X33744D01*
Y-37658D01*
X24329Y-47073D01*
X23942Y-47652D01*
X23806Y-48335D01*
Y-51087D01*
X23306Y-51186D01*
X23243Y-51034D01*
X22446Y-49995D01*
X21407Y-49198D01*
X20196Y-48696D01*
X18898Y-48525D01*
X17599Y-48696D01*
X16389Y-49198D01*
X15349Y-49995D01*
X14552Y-51034D01*
X14051Y-52245D01*
X13880Y-53543D01*
X14051Y-54842D01*
X14552Y-56052D01*
X15349Y-57091D01*
X16389Y-57889D01*
X17599Y-58390D01*
X18898Y-58561D01*
X20196Y-58390D01*
X21407Y-57889D01*
X22446Y-57091D01*
X23243Y-56052D01*
X23306Y-55900D01*
X23806Y-56000D01*
Y-66835D01*
X23306Y-66934D01*
X23243Y-66782D01*
X22446Y-65743D01*
X21407Y-64946D01*
X20196Y-64444D01*
X18898Y-64273D01*
X17599Y-64444D01*
X16389Y-64946D01*
X15349Y-65743D01*
X14552Y-66782D01*
X14051Y-67993D01*
X13880Y-69291D01*
X14051Y-70590D01*
X14552Y-71800D01*
X15349Y-72839D01*
X15469Y-72931D01*
X15414Y-73519D01*
X15061Y-73755D01*
X15061Y-73755D01*
X8323Y-80493D01*
X7598Y-80192D01*
X6300Y-80021D01*
X5001Y-80192D01*
X3791Y-80694D01*
X2751Y-81491D01*
X1954Y-82530D01*
X1681Y-83189D01*
X1181Y-83090D01*
Y-71241D01*
X1681Y-71141D01*
X1954Y-71800D01*
X2751Y-72839D01*
X3791Y-73637D01*
X5001Y-74138D01*
X5800Y-74243D01*
Y-69291D01*
Y-64339D01*
X5001Y-64444D01*
X3791Y-64946D01*
X2751Y-65743D01*
X1954Y-66782D01*
X1681Y-67441D01*
X1181Y-67342D01*
Y-55493D01*
X1681Y-55393D01*
X1954Y-56052D01*
X2751Y-57091D01*
X3791Y-57889D01*
X5001Y-58390D01*
X5800Y-58495D01*
Y-53543D01*
Y-48591D01*
X5001Y-48696D01*
X3791Y-49198D01*
X2751Y-49995D01*
X1954Y-51034D01*
X1681Y-51693D01*
X1181Y-51594D01*
Y-39745D01*
X1681Y-39645D01*
X1954Y-40304D01*
X2751Y-41344D01*
X3791Y-42141D01*
X5001Y-42642D01*
X6300Y-42813D01*
X7598Y-42642D01*
X8809Y-42141D01*
X9848Y-41344D01*
X10645Y-40304D01*
X11147Y-39094D01*
X11318Y-37795D01*
X11147Y-36497D01*
X10645Y-35286D01*
X9848Y-34247D01*
X8809Y-33450D01*
X7598Y-32948D01*
X6300Y-32777D01*
X5001Y-32948D01*
X3791Y-33450D01*
X2751Y-34247D01*
X1954Y-35286D01*
X1681Y-35945D01*
X1181Y-35846D01*
Y-23997D01*
X1681Y-23897D01*
X1954Y-24556D01*
X2751Y-25596D01*
X3791Y-26393D01*
X5001Y-26894D01*
X6300Y-27065D01*
X7598Y-26894D01*
X8809Y-26393D01*
X9848Y-25596D01*
X10645Y-24556D01*
X11147Y-23346D01*
X11318Y-22047D01*
X11147Y-20749D01*
X10645Y-19538D01*
X9848Y-18499D01*
X8809Y-17702D01*
X7598Y-17200D01*
X6300Y-17029D01*
X5001Y-17200D01*
X3791Y-17702D01*
X2751Y-18499D01*
X1954Y-19538D01*
X1681Y-20197D01*
X1181Y-20098D01*
Y-8249D01*
X1681Y-8149D01*
X1954Y-8808D01*
X2751Y-9848D01*
X3791Y-10645D01*
X5001Y-11146D01*
X6300Y-11317D01*
X7598Y-11146D01*
X8809Y-10645D01*
X9848Y-9848D01*
X10645Y-8808D01*
X11147Y-7598D01*
X11318Y-6299D01*
X11147Y-5001D01*
X10645Y-3790D01*
X9848Y-2751D01*
X8809Y-1954D01*
X8151Y-1681D01*
X8250Y-1181D01*
X16947D01*
X17047Y-1681D01*
X16389Y-1954D01*
X15349Y-2751D01*
X14552Y-3790D01*
X14051Y-5001D01*
X13880Y-6299D01*
X14051Y-7598D01*
X14552Y-8808D01*
X15349Y-9848D01*
X16389Y-10645D01*
X17599Y-11146D01*
X18898Y-11317D01*
X20196Y-11146D01*
X21407Y-10645D01*
X22446Y-9848D01*
X23243Y-8808D01*
X23745Y-7598D01*
X23916Y-6299D01*
X23745Y-5001D01*
X23243Y-3790D01*
X22446Y-2751D01*
X21407Y-1954D01*
X20749Y-1681D01*
X20848Y-1181D01*
X314173D01*
Y-122441D01*
D02*
G37*
G36*
X104724Y-89906D02*
X102862D01*
Y-93307D01*
Y-96709D01*
X104724D01*
Y-103724D01*
X98606D01*
Y-109343D01*
X106496D01*
Y-110343D01*
X98606D01*
Y-115961D01*
X104724D01*
Y-122441D01*
X77559D01*
Y-116394D01*
X80484D01*
Y-112992D01*
Y-109591D01*
X77559D01*
Y-82677D01*
X104724D01*
Y-89906D01*
D02*
G37*
%LPC*%
G36*
X96063Y-4376D02*
X58268D01*
X57682Y-4493D01*
X57186Y-4824D01*
X55183Y-6828D01*
X54862Y-6764D01*
X54082Y-6919D01*
X53420Y-7361D01*
X52978Y-8023D01*
X52823Y-8803D01*
Y-14803D01*
X52978Y-15584D01*
X53420Y-16245D01*
X54082Y-16687D01*
X54862Y-16842D01*
X55643Y-16687D01*
X56304Y-16245D01*
X56746Y-15584D01*
X56902Y-14803D01*
Y-9435D01*
X57323Y-9013D01*
X57823Y-9220D01*
Y-14803D01*
X57978Y-15584D01*
X58333Y-16114D01*
Y-18549D01*
X52208D01*
X46669Y-13010D01*
Y-8646D01*
X40732D01*
Y-15764D01*
X45097D01*
X50493Y-21160D01*
X50989Y-21492D01*
X51575Y-21608D01*
X58333D01*
Y-22067D01*
X58449Y-22652D01*
X58781Y-23148D01*
X61580Y-25948D01*
X62076Y-26279D01*
X62661Y-26395D01*
X78943D01*
Y-26953D01*
X76913D01*
Y-32890D01*
X82562D01*
X82753Y-33352D01*
X81278Y-34827D01*
X76913D01*
Y-36266D01*
X71902D01*
Y-34803D01*
X71746Y-34023D01*
X71304Y-33361D01*
X70643Y-32919D01*
X69862Y-32764D01*
X69082Y-32919D01*
X68420Y-33361D01*
X67978Y-34023D01*
X67823Y-34803D01*
Y-40803D01*
X67978Y-41583D01*
X68420Y-42245D01*
X69082Y-42687D01*
X69862Y-42842D01*
X70643Y-42687D01*
X71304Y-42245D01*
X71746Y-41583D01*
X71902Y-40803D01*
Y-39325D01*
X76913D01*
Y-40764D01*
X79715D01*
X79748Y-41264D01*
X79125Y-41346D01*
X78274Y-41698D01*
X77543Y-42259D01*
X76982Y-42990D01*
X76629Y-43842D01*
X76509Y-44756D01*
X76629Y-45669D01*
X76982Y-46521D01*
X77543Y-47252D01*
X78274Y-47813D01*
X79125Y-48166D01*
X80039Y-48286D01*
X80953Y-48166D01*
X81804Y-47813D01*
X82535Y-47252D01*
X83096Y-46521D01*
X83194Y-46285D01*
X98221D01*
X101406Y-49470D01*
X101309Y-49961D01*
X100991Y-50092D01*
X100260Y-50653D01*
X99699Y-51385D01*
X99601Y-51620D01*
X79134D01*
X78549Y-51737D01*
X78052Y-52068D01*
X40140Y-89981D01*
X39934Y-89823D01*
X38542Y-89246D01*
X37047Y-89049D01*
X35553Y-89246D01*
X34160Y-89823D01*
X32965Y-90740D01*
X32047Y-91936D01*
X31470Y-93328D01*
X31273Y-94823D01*
X31470Y-96317D01*
X32047Y-97710D01*
X32965Y-98906D01*
X34160Y-99823D01*
X35553Y-100400D01*
X37047Y-100597D01*
X38542Y-100400D01*
X39934Y-99823D01*
X41130Y-98906D01*
X42048Y-97710D01*
X42624Y-96317D01*
X42821Y-94823D01*
X42624Y-93328D01*
X42183Y-92263D01*
X79767Y-54679D01*
X99601D01*
X99699Y-54915D01*
X100260Y-55646D01*
X100991Y-56207D01*
X101842Y-56559D01*
X102756Y-56680D01*
X103670Y-56559D01*
X104521Y-56207D01*
X105252Y-55646D01*
X105813Y-54915D01*
X106166Y-54063D01*
X106286Y-53150D01*
X106166Y-52236D01*
X105813Y-51385D01*
X105548Y-51039D01*
X105794Y-50539D01*
X107360D01*
X107946Y-50422D01*
X108442Y-50091D01*
X108578Y-49955D01*
X163788D01*
X164585Y-50751D01*
X165081Y-51082D01*
X165666Y-51199D01*
X168980D01*
X169565Y-51082D01*
X170061Y-50751D01*
X170857Y-49955D01*
X174168D01*
X174266Y-50190D01*
X174827Y-50921D01*
X175558Y-51482D01*
X176409Y-51835D01*
X177323Y-51955D01*
X178237Y-51835D01*
X179088Y-51482D01*
X179819Y-50921D01*
X180380Y-50190D01*
X180733Y-49339D01*
X180853Y-48425D01*
X180733Y-47512D01*
X180380Y-46660D01*
X179819Y-45929D01*
X179088Y-45368D01*
X178237Y-45015D01*
X177323Y-44895D01*
X176409Y-45015D01*
X175558Y-45368D01*
X174827Y-45929D01*
X174266Y-46660D01*
X174168Y-46896D01*
X171086D01*
X170757Y-46396D01*
X170853Y-45669D01*
X170733Y-44756D01*
X170380Y-43904D01*
X169819Y-43173D01*
X169088Y-42612D01*
X168236Y-42259D01*
X167323Y-42139D01*
X166409Y-42259D01*
X165558Y-42612D01*
X164827Y-43173D01*
X164689Y-43352D01*
X108273D01*
X108175Y-43117D01*
X107614Y-42386D01*
X106883Y-41825D01*
X106032Y-41472D01*
X105118Y-41352D01*
X104204Y-41472D01*
X103353Y-41825D01*
X102622Y-42386D01*
X102061Y-43117D01*
X101708Y-43968D01*
X101619Y-44650D01*
X101097Y-44835D01*
X99936Y-43674D01*
X99440Y-43343D01*
X98855Y-43226D01*
X83194D01*
X83096Y-42990D01*
X82535Y-42259D01*
X81804Y-41698D01*
X80953Y-41346D01*
X80330Y-41264D01*
X80363Y-40764D01*
X84031D01*
Y-36399D01*
X88026Y-32404D01*
X88358Y-31908D01*
X88474Y-31323D01*
Y-28111D01*
X89921Y-26663D01*
X93398D01*
X95375Y-28640D01*
X95848Y-28956D01*
X95825Y-29134D01*
X95927Y-29909D01*
X96226Y-30631D01*
X96702Y-31251D01*
X97322Y-31727D01*
X98044Y-32026D01*
X98819Y-32128D01*
X99594Y-32026D01*
X100316Y-31727D01*
X100936Y-31251D01*
X101412Y-30631D01*
X101711Y-29909D01*
X101813Y-29134D01*
X101853Y-29088D01*
X125983D01*
X126016Y-29588D01*
X125464Y-29661D01*
X124613Y-30014D01*
X123882Y-30575D01*
X123321Y-31306D01*
X122968Y-32157D01*
X122848Y-33071D01*
X122968Y-33985D01*
X123321Y-34836D01*
X123882Y-35567D01*
X124613Y-36128D01*
X125464Y-36481D01*
X126378Y-36601D01*
X127292Y-36481D01*
X128143Y-36128D01*
X128874Y-35567D01*
X129435Y-34836D01*
X129533Y-34600D01*
X183459D01*
X183557Y-34836D01*
X184118Y-35567D01*
X184849Y-36128D01*
X185701Y-36481D01*
X186614Y-36601D01*
X187528Y-36481D01*
X188379Y-36128D01*
X189111Y-35567D01*
X189672Y-34836D01*
X190024Y-33985D01*
X190145Y-33071D01*
X190024Y-32157D01*
X189672Y-31306D01*
X189111Y-30575D01*
X188379Y-30014D01*
X187528Y-29661D01*
X186976Y-29588D01*
X187009Y-29088D01*
X190881D01*
X194465Y-32672D01*
X194961Y-33004D01*
X195546Y-33120D01*
X200041D01*
X200626Y-33004D01*
X201122Y-32672D01*
X202675Y-31120D01*
X213463D01*
X213793Y-31496D01*
X213793Y-31496D01*
X213913Y-32410D01*
X214266Y-33261D01*
X214827Y-33992D01*
X215558Y-34553D01*
X216409Y-34906D01*
X217323Y-35026D01*
X218237Y-34906D01*
X219088Y-34553D01*
X219602Y-34159D01*
X220210Y-34200D01*
X220262Y-34236D01*
X221885Y-35859D01*
X221787Y-36094D01*
X221667Y-37008D01*
X221787Y-37922D01*
X222140Y-38773D01*
X222701Y-39504D01*
X223432Y-40065D01*
X224283Y-40418D01*
X225197Y-40538D01*
X226111Y-40418D01*
X226962Y-40065D01*
X227693Y-39504D01*
X228254Y-38773D01*
X228607Y-37922D01*
X228727Y-37008D01*
X228607Y-36094D01*
X228254Y-35243D01*
X227693Y-34512D01*
X226962Y-33951D01*
X226111Y-33598D01*
X225197Y-33478D01*
X224283Y-33598D01*
X224047Y-33696D01*
X222852Y-32500D01*
Y-29839D01*
X222736Y-29254D01*
X222404Y-28758D01*
X220061Y-26415D01*
X219565Y-26083D01*
X218980Y-25967D01*
X215666D01*
X215191Y-26061D01*
X209193D01*
X209093Y-25561D01*
X209245Y-25498D01*
X209977Y-24937D01*
X210538Y-24206D01*
X210890Y-23355D01*
X211011Y-22441D01*
X210890Y-21527D01*
X210538Y-20676D01*
X209977Y-19945D01*
X209245Y-19384D01*
X208394Y-19031D01*
X207480Y-18911D01*
X206567Y-19031D01*
X205715Y-19384D01*
X205304Y-19699D01*
X112019D01*
X102897Y-10577D01*
X102994Y-9843D01*
X102892Y-9068D01*
X102593Y-8345D01*
X102117Y-7725D01*
X101497Y-7249D01*
X100775Y-6950D01*
X100000Y-6848D01*
X99265Y-6945D01*
X97144Y-4824D01*
X96648Y-4493D01*
X96063Y-4376D01*
D02*
G37*
G36*
X287823Y-7530D02*
Y-11705D01*
X291998D01*
X291902Y-10978D01*
X291428Y-9834D01*
X290675Y-8853D01*
X289693Y-8099D01*
X288550Y-7626D01*
X287823Y-7530D01*
D02*
G37*
G36*
X38795Y-8646D02*
X36327D01*
Y-11705D01*
X38795D01*
Y-8646D01*
D02*
G37*
G36*
X35327D02*
X32858D01*
Y-11705D01*
X35327D01*
Y-8646D01*
D02*
G37*
G36*
X286823Y-7530D02*
X286096Y-7626D01*
X284953Y-8099D01*
X283971Y-8853D01*
X283217Y-9834D01*
X282744Y-10978D01*
X282648Y-11705D01*
X286823D01*
Y-7530D01*
D02*
G37*
G36*
X38795Y-12705D02*
X36327D01*
Y-15764D01*
X38795D01*
Y-12705D01*
D02*
G37*
G36*
X35327D02*
X32858D01*
Y-15764D01*
X35327D01*
Y-12705D01*
D02*
G37*
G36*
X286823D02*
X282648D01*
X282744Y-13432D01*
X283217Y-14575D01*
X283971Y-15557D01*
X284953Y-16310D01*
X286096Y-16784D01*
X286823Y-16879D01*
Y-12705D01*
D02*
G37*
G36*
X291998D02*
X287823D01*
Y-16879D01*
X288550Y-16784D01*
X289693Y-16310D01*
X290675Y-15557D01*
X291428Y-14575D01*
X291902Y-13432D01*
X291998Y-12705D01*
D02*
G37*
G36*
X277323Y-7464D02*
X276096Y-7626D01*
X274953Y-8099D01*
X273971Y-8853D01*
X273217Y-9834D01*
X272744Y-10978D01*
X272582Y-12205D01*
X272744Y-13432D01*
X273092Y-14273D01*
X242044Y-45321D01*
X240950D01*
X240852Y-45085D01*
X240292Y-44354D01*
X239560Y-43793D01*
X238709Y-43440D01*
X237795Y-43320D01*
X236882Y-43440D01*
X236030Y-43793D01*
X235299Y-44354D01*
X234738Y-45085D01*
X234385Y-45937D01*
X234265Y-46850D01*
X234385Y-47764D01*
X234738Y-48616D01*
X235299Y-49347D01*
X236030Y-49908D01*
X236882Y-50260D01*
X237795Y-50381D01*
X238709Y-50260D01*
X239560Y-49908D01*
X240292Y-49347D01*
X240852Y-48616D01*
X240950Y-48380D01*
X242677D01*
X243263Y-48263D01*
X243759Y-47932D01*
X275255Y-16435D01*
X276096Y-16784D01*
X277323Y-16945D01*
X278550Y-16784D01*
X279693Y-16310D01*
X280675Y-15557D01*
X281428Y-14575D01*
X281902Y-13432D01*
X282063Y-12205D01*
X281902Y-10978D01*
X281428Y-9834D01*
X280675Y-8853D01*
X279693Y-8099D01*
X278550Y-7626D01*
X277323Y-7464D01*
D02*
G37*
G36*
X267323D02*
X266096Y-7626D01*
X264953Y-8099D01*
X263971Y-8853D01*
X263217Y-9834D01*
X262744Y-10978D01*
X262582Y-12205D01*
X262744Y-13432D01*
X263092Y-14273D01*
X239918Y-37447D01*
X234252D01*
X233667Y-37563D01*
X233171Y-37895D01*
X232252Y-38814D01*
X232016Y-38716D01*
X231102Y-38596D01*
X230189Y-38716D01*
X229337Y-39069D01*
X228606Y-39630D01*
X228045Y-40361D01*
X227693Y-41212D01*
X227572Y-42126D01*
X227693Y-43040D01*
X228045Y-43891D01*
X228606Y-44622D01*
X229337Y-45183D01*
X230189Y-45536D01*
X231102Y-45656D01*
X232016Y-45536D01*
X232868Y-45183D01*
X233599Y-44622D01*
X234160Y-43891D01*
X234512Y-43040D01*
X234633Y-42126D01*
X234512Y-41212D01*
X234415Y-40977D01*
X234885Y-40506D01*
X240551D01*
X241137Y-40389D01*
X241633Y-40058D01*
X265255Y-16435D01*
X266096Y-16784D01*
X267323Y-16945D01*
X268550Y-16784D01*
X269693Y-16310D01*
X270675Y-15557D01*
X271428Y-14575D01*
X271902Y-13432D01*
X272063Y-12205D01*
X271902Y-10978D01*
X271428Y-9834D01*
X270675Y-8853D01*
X269693Y-8099D01*
X268550Y-7626D01*
X267323Y-7464D01*
D02*
G37*
G36*
X257323D02*
X256096Y-7626D01*
X254953Y-8099D01*
X253971Y-8853D01*
X253217Y-9834D01*
X252744Y-10978D01*
X252582Y-12205D01*
X252744Y-13432D01*
X253217Y-14575D01*
X253971Y-15557D01*
X254953Y-16310D01*
X256096Y-16784D01*
X257323Y-16945D01*
X258550Y-16784D01*
X259693Y-16310D01*
X260675Y-15557D01*
X261428Y-14575D01*
X261902Y-13432D01*
X262063Y-12205D01*
X261902Y-10978D01*
X261428Y-9834D01*
X260675Y-8853D01*
X259693Y-8099D01*
X258550Y-7626D01*
X257323Y-7464D01*
D02*
G37*
G36*
X247323D02*
X246096Y-7626D01*
X244953Y-8099D01*
X243971Y-8853D01*
X243217Y-9834D01*
X242744Y-10978D01*
X242582Y-12205D01*
X242744Y-13432D01*
X243217Y-14575D01*
X243971Y-15557D01*
X244953Y-16310D01*
X246096Y-16784D01*
X247323Y-16945D01*
X248550Y-16784D01*
X249693Y-16310D01*
X250675Y-15557D01*
X251428Y-14575D01*
X251902Y-13432D01*
X252063Y-12205D01*
X251902Y-10978D01*
X251428Y-9834D01*
X250675Y-8853D01*
X249693Y-8099D01*
X248550Y-7626D01*
X247323Y-7464D01*
D02*
G37*
G36*
X237323D02*
X236096Y-7626D01*
X234953Y-8099D01*
X233971Y-8853D01*
X233217Y-9834D01*
X232744Y-10978D01*
X232582Y-12205D01*
X232744Y-13432D01*
X233217Y-14575D01*
X233971Y-15557D01*
X234953Y-16310D01*
X236096Y-16784D01*
X237323Y-16945D01*
X238550Y-16784D01*
X239693Y-16310D01*
X240675Y-15557D01*
X241428Y-14575D01*
X241902Y-13432D01*
X242063Y-12205D01*
X241902Y-10978D01*
X241428Y-9834D01*
X240675Y-8853D01*
X239693Y-8099D01*
X238550Y-7626D01*
X237323Y-7464D01*
D02*
G37*
G36*
X217323D02*
X216096Y-7626D01*
X214953Y-8099D01*
X213971Y-8853D01*
X213217Y-9834D01*
X212744Y-10978D01*
X212582Y-12205D01*
X212744Y-13432D01*
X213217Y-14575D01*
X213971Y-15557D01*
X214953Y-16310D01*
X216096Y-16784D01*
X217323Y-16945D01*
X218550Y-16784D01*
X219693Y-16310D01*
X220675Y-15557D01*
X221428Y-14575D01*
X221902Y-13432D01*
X222063Y-12205D01*
X221902Y-10978D01*
X221428Y-9834D01*
X220675Y-8853D01*
X219693Y-8099D01*
X218550Y-7626D01*
X217323Y-7464D01*
D02*
G37*
G36*
X207323D02*
X206096Y-7626D01*
X204953Y-8099D01*
X203971Y-8853D01*
X203217Y-9834D01*
X202744Y-10978D01*
X202582Y-12205D01*
X202744Y-13432D01*
X203217Y-14575D01*
X203971Y-15557D01*
X204953Y-16310D01*
X206096Y-16784D01*
X207323Y-16945D01*
X208550Y-16784D01*
X209693Y-16310D01*
X210675Y-15557D01*
X211428Y-14575D01*
X211902Y-13432D01*
X212063Y-12205D01*
X211902Y-10978D01*
X211428Y-9834D01*
X210675Y-8853D01*
X209693Y-8099D01*
X208550Y-7626D01*
X207323Y-7464D01*
D02*
G37*
G36*
X197323D02*
X196096Y-7626D01*
X194952Y-8099D01*
X193971Y-8853D01*
X193217Y-9834D01*
X192744Y-10978D01*
X192582Y-12205D01*
X192744Y-13432D01*
X193217Y-14575D01*
X193971Y-15557D01*
X194952Y-16310D01*
X196096Y-16784D01*
X197323Y-16945D01*
X198550Y-16784D01*
X199693Y-16310D01*
X200675Y-15557D01*
X201428Y-14575D01*
X201902Y-13432D01*
X202063Y-12205D01*
X201902Y-10978D01*
X201428Y-9834D01*
X200675Y-8853D01*
X199693Y-8099D01*
X198550Y-7626D01*
X197323Y-7464D01*
D02*
G37*
G36*
X187323D02*
X186096Y-7626D01*
X184952Y-8099D01*
X183971Y-8853D01*
X183217Y-9834D01*
X182744Y-10978D01*
X182582Y-12205D01*
X182744Y-13432D01*
X183217Y-14575D01*
X183971Y-15557D01*
X184952Y-16310D01*
X186096Y-16784D01*
X187323Y-16945D01*
X188550Y-16784D01*
X189693Y-16310D01*
X190675Y-15557D01*
X191428Y-14575D01*
X191902Y-13432D01*
X192063Y-12205D01*
X191902Y-10978D01*
X191428Y-9834D01*
X190675Y-8853D01*
X189693Y-8099D01*
X188550Y-7626D01*
X187323Y-7464D01*
D02*
G37*
G36*
X177323D02*
X176096Y-7626D01*
X174952Y-8099D01*
X173971Y-8853D01*
X173217Y-9834D01*
X172744Y-10978D01*
X172582Y-12205D01*
X172744Y-13432D01*
X173217Y-14575D01*
X173971Y-15557D01*
X174952Y-16310D01*
X176096Y-16784D01*
X177323Y-16945D01*
X178550Y-16784D01*
X179693Y-16310D01*
X180675Y-15557D01*
X181428Y-14575D01*
X181902Y-13432D01*
X182063Y-12205D01*
X181902Y-10978D01*
X181428Y-9834D01*
X180675Y-8853D01*
X179693Y-8099D01*
X178550Y-7626D01*
X177323Y-7464D01*
D02*
G37*
G36*
X167323D02*
X166096Y-7626D01*
X164953Y-8099D01*
X163971Y-8853D01*
X163217Y-9834D01*
X162744Y-10978D01*
X162582Y-12205D01*
X162744Y-13432D01*
X163217Y-14575D01*
X163971Y-15557D01*
X164953Y-16310D01*
X166096Y-16784D01*
X167323Y-16945D01*
X168550Y-16784D01*
X169693Y-16310D01*
X170675Y-15557D01*
X171428Y-14575D01*
X171902Y-13432D01*
X172063Y-12205D01*
X171902Y-10978D01*
X171428Y-9834D01*
X170675Y-8853D01*
X169693Y-8099D01*
X168550Y-7626D01*
X167323Y-7464D01*
D02*
G37*
G36*
X157323D02*
X156096Y-7626D01*
X154953Y-8099D01*
X153971Y-8853D01*
X153217Y-9834D01*
X152744Y-10978D01*
X152582Y-12205D01*
X152744Y-13432D01*
X153217Y-14575D01*
X153971Y-15557D01*
X154953Y-16310D01*
X156096Y-16784D01*
X157323Y-16945D01*
X158550Y-16784D01*
X159693Y-16310D01*
X160675Y-15557D01*
X161428Y-14575D01*
X161902Y-13432D01*
X162063Y-12205D01*
X161902Y-10978D01*
X161428Y-9834D01*
X160675Y-8853D01*
X159693Y-8099D01*
X158550Y-7626D01*
X157323Y-7464D01*
D02*
G37*
G36*
X147323D02*
X146096Y-7626D01*
X144952Y-8099D01*
X143971Y-8853D01*
X143217Y-9834D01*
X142744Y-10978D01*
X142582Y-12205D01*
X142744Y-13432D01*
X143217Y-14575D01*
X143971Y-15557D01*
X144952Y-16310D01*
X146096Y-16784D01*
X147323Y-16945D01*
X148550Y-16784D01*
X149693Y-16310D01*
X150675Y-15557D01*
X151428Y-14575D01*
X151902Y-13432D01*
X152063Y-12205D01*
X151902Y-10978D01*
X151428Y-9834D01*
X150675Y-8853D01*
X149693Y-8099D01*
X148550Y-7626D01*
X147323Y-7464D01*
D02*
G37*
G36*
X137323D02*
X136096Y-7626D01*
X134952Y-8099D01*
X133971Y-8853D01*
X133217Y-9834D01*
X132744Y-10978D01*
X132582Y-12205D01*
X132744Y-13432D01*
X133217Y-14575D01*
X133971Y-15557D01*
X134952Y-16310D01*
X136096Y-16784D01*
X137323Y-16945D01*
X138550Y-16784D01*
X139693Y-16310D01*
X140675Y-15557D01*
X141428Y-14575D01*
X141902Y-13432D01*
X142063Y-12205D01*
X141902Y-10978D01*
X141428Y-9834D01*
X140675Y-8853D01*
X139693Y-8099D01*
X138550Y-7626D01*
X137323Y-7464D01*
D02*
G37*
G36*
X127323D02*
X126096Y-7626D01*
X124952Y-8099D01*
X123971Y-8853D01*
X123217Y-9834D01*
X122744Y-10978D01*
X122582Y-12205D01*
X122744Y-13432D01*
X123217Y-14575D01*
X123971Y-15557D01*
X124952Y-16310D01*
X126096Y-16784D01*
X127323Y-16945D01*
X128550Y-16784D01*
X129693Y-16310D01*
X130675Y-15557D01*
X131428Y-14575D01*
X131902Y-13432D01*
X132063Y-12205D01*
X131902Y-10978D01*
X131428Y-9834D01*
X130675Y-8853D01*
X129693Y-8099D01*
X128550Y-7626D01*
X127323Y-7464D01*
D02*
G37*
G36*
X42043Y-24091D02*
X40264D01*
Y-26953D01*
X42043D01*
Y-24091D01*
D02*
G37*
G36*
X39264D02*
X37484D01*
Y-26953D01*
X39264D01*
Y-24091D01*
D02*
G37*
G36*
X18898Y-17029D02*
X17599Y-17200D01*
X16389Y-17702D01*
X15349Y-18499D01*
X14552Y-19538D01*
X14051Y-20749D01*
X13880Y-22047D01*
X14051Y-23346D01*
X14552Y-24556D01*
X15349Y-25596D01*
X16389Y-26393D01*
X17599Y-26894D01*
X18898Y-27065D01*
X20196Y-26894D01*
X21407Y-26393D01*
X22446Y-25596D01*
X23243Y-24556D01*
X23745Y-23346D01*
X23916Y-22047D01*
X23745Y-20749D01*
X23243Y-19538D01*
X22446Y-18499D01*
X21407Y-17702D01*
X20196Y-17200D01*
X18898Y-17029D01*
D02*
G37*
G36*
X39264Y-27953D02*
X37484D01*
Y-30815D01*
X39264D01*
Y-27953D01*
D02*
G37*
G36*
X18898Y-32777D02*
X17599Y-32948D01*
X16389Y-33450D01*
X15349Y-34247D01*
X14552Y-35286D01*
X14051Y-36497D01*
X13880Y-37795D01*
X14051Y-39094D01*
X14552Y-40304D01*
X15349Y-41344D01*
X16389Y-42141D01*
X17599Y-42642D01*
X18898Y-42813D01*
X20196Y-42642D01*
X21407Y-42141D01*
X22446Y-41344D01*
X23243Y-40304D01*
X23745Y-39094D01*
X23916Y-37795D01*
X23745Y-36497D01*
X23243Y-35286D01*
X22446Y-34247D01*
X21407Y-33450D01*
X20196Y-32948D01*
X18898Y-32777D01*
D02*
G37*
G36*
X296803Y-2801D02*
X235197D01*
X234612Y-2918D01*
X234115Y-3249D01*
X229391Y-7974D01*
X228550Y-7626D01*
X227323Y-7464D01*
X226096Y-7626D01*
X224953Y-8099D01*
X223971Y-8853D01*
X223217Y-9834D01*
X222744Y-10978D01*
X222582Y-12205D01*
X222744Y-13432D01*
X223217Y-14575D01*
X223971Y-15557D01*
X224953Y-16310D01*
X226096Y-16784D01*
X227323Y-16945D01*
X228550Y-16784D01*
X229693Y-16310D01*
X230675Y-15557D01*
X231428Y-14575D01*
X231902Y-13432D01*
X232063Y-12205D01*
X231902Y-10978D01*
X231554Y-10137D01*
X235830Y-5860D01*
X296169D01*
X297285Y-6976D01*
X297096Y-7494D01*
X296096Y-7626D01*
X294953Y-8099D01*
X293971Y-8853D01*
X293217Y-9834D01*
X292744Y-10978D01*
X292582Y-12205D01*
X292744Y-13432D01*
X293217Y-14575D01*
X293971Y-15557D01*
X294329Y-15832D01*
Y-22776D01*
X257500Y-59604D01*
X109029D01*
Y-58449D01*
X97187D01*
Y-59604D01*
X90321D01*
X90040Y-58924D01*
X89122Y-57728D01*
X87926Y-56811D01*
X86534Y-56234D01*
X85039Y-56037D01*
X83545Y-56234D01*
X82152Y-56811D01*
X80957Y-57728D01*
X80039Y-58924D01*
X79462Y-60317D01*
X79265Y-61811D01*
X79462Y-63305D01*
X80039Y-64698D01*
X80957Y-65894D01*
X82152Y-66811D01*
X83545Y-67388D01*
X85039Y-67585D01*
X86534Y-67388D01*
X87926Y-66811D01*
X89122Y-65894D01*
X89353Y-65593D01*
X97187D01*
Y-66748D01*
X109029D01*
Y-65593D01*
X258740D01*
X259515Y-65491D01*
X260237Y-65192D01*
X260857Y-64716D01*
X299440Y-26133D01*
X299916Y-25513D01*
X300215Y-24791D01*
X300317Y-24016D01*
Y-15831D01*
X300675Y-15557D01*
X300948Y-15201D01*
X301526Y-15270D01*
X302511Y-16255D01*
X302414Y-16491D01*
X302293Y-17405D01*
X302414Y-18318D01*
X302766Y-19170D01*
X303327Y-19901D01*
X304059Y-20462D01*
X304910Y-20815D01*
X305824Y-20935D01*
X306737Y-20815D01*
X307589Y-20462D01*
X307846Y-20265D01*
X308294Y-20486D01*
Y-44569D01*
X307907Y-44956D01*
X307874Y-44952D01*
X306960Y-45072D01*
X306109Y-45425D01*
X305378Y-45986D01*
X304817Y-46717D01*
X304464Y-47569D01*
X304344Y-48482D01*
X304464Y-49396D01*
X304817Y-50247D01*
X305378Y-50978D01*
X306109Y-51539D01*
X306960Y-51892D01*
X307874Y-52012D01*
X308788Y-51892D01*
X309639Y-51539D01*
X310370Y-50978D01*
X310931Y-50247D01*
X311284Y-49396D01*
X311404Y-48482D01*
X311284Y-47569D01*
X310931Y-46717D01*
X310732Y-46457D01*
X310905Y-46284D01*
X311237Y-45787D01*
X311353Y-45202D01*
Y-15748D01*
X311237Y-15163D01*
X310905Y-14666D01*
X308487Y-12248D01*
X308476Y-12050D01*
X308574Y-11629D01*
X309189Y-11158D01*
X309750Y-10427D01*
X310103Y-9575D01*
X310223Y-8662D01*
X310103Y-7748D01*
X309750Y-6896D01*
X309189Y-6165D01*
X308458Y-5604D01*
X307607Y-5252D01*
X306693Y-5131D01*
X305779Y-5252D01*
X304928Y-5604D01*
X304197Y-6165D01*
X303636Y-6896D01*
X303283Y-7748D01*
X303252Y-7983D01*
X302779Y-8144D01*
X297884Y-3249D01*
X297388Y-2918D01*
X296803Y-2801D01*
D02*
G37*
G36*
X6800Y-48591D02*
Y-53043D01*
X11252D01*
X11147Y-52245D01*
X10645Y-51034D01*
X9848Y-49995D01*
X8809Y-49198D01*
X7598Y-48696D01*
X6800Y-48591D01*
D02*
G37*
G36*
X11252Y-54043D02*
X6800D01*
Y-58495D01*
X7598Y-58390D01*
X8809Y-57889D01*
X9848Y-57091D01*
X10645Y-56052D01*
X11147Y-54842D01*
X11252Y-54043D01*
D02*
G37*
G36*
X37047Y-51057D02*
X35553Y-51254D01*
X34160Y-51830D01*
X32965Y-52748D01*
X32047Y-53944D01*
X31470Y-55336D01*
X31273Y-56831D01*
X31470Y-58325D01*
X32047Y-59718D01*
X32965Y-60913D01*
X34160Y-61831D01*
X35553Y-62408D01*
X37047Y-62604D01*
X38542Y-62408D01*
X39934Y-61831D01*
X41130Y-60913D01*
X42048Y-59718D01*
X42624Y-58325D01*
X42821Y-56831D01*
X42624Y-55336D01*
X42048Y-53944D01*
X41130Y-52748D01*
X39934Y-51830D01*
X38542Y-51254D01*
X37047Y-51057D01*
D02*
G37*
G36*
X6800Y-64339D02*
Y-68791D01*
X11252D01*
X11147Y-67993D01*
X10645Y-66782D01*
X9848Y-65743D01*
X8809Y-64946D01*
X7598Y-64444D01*
X6800Y-64339D01*
D02*
G37*
G36*
X11252Y-69791D02*
X6800D01*
Y-74243D01*
X7598Y-74138D01*
X8809Y-73637D01*
X9848Y-72839D01*
X10645Y-71800D01*
X11147Y-70590D01*
X11252Y-69791D01*
D02*
G37*
G36*
X85539Y-70119D02*
Y-75327D01*
X90747D01*
X90616Y-74332D01*
X90040Y-72940D01*
X89122Y-71744D01*
X87926Y-70826D01*
X86534Y-70250D01*
X85539Y-70119D01*
D02*
G37*
G36*
X84539D02*
X83545Y-70250D01*
X82152Y-70826D01*
X80957Y-71744D01*
X80039Y-72940D01*
X79462Y-74332D01*
X79331Y-75327D01*
X84539D01*
Y-70119D01*
D02*
G37*
G36*
X109029Y-71835D02*
X103608D01*
Y-75484D01*
X109029D01*
Y-71835D01*
D02*
G37*
G36*
X102608D02*
X97187D01*
Y-75484D01*
X102608D01*
Y-71835D01*
D02*
G37*
G36*
X109029Y-76484D02*
X103608D01*
Y-80134D01*
X109029D01*
Y-76484D01*
D02*
G37*
G36*
X102608D02*
X97187D01*
Y-80134D01*
X102608D01*
Y-76484D01*
D02*
G37*
G36*
X227323Y-77464D02*
X226096Y-77626D01*
X224953Y-78099D01*
X223971Y-78853D01*
X223217Y-79834D01*
X222744Y-80978D01*
X222582Y-82205D01*
X222744Y-83432D01*
X223217Y-84575D01*
X223971Y-85557D01*
X224953Y-86310D01*
X226096Y-86784D01*
X227323Y-86945D01*
X228550Y-86784D01*
X229693Y-86310D01*
X230675Y-85557D01*
X231428Y-84575D01*
X231902Y-83432D01*
X232063Y-82205D01*
X231902Y-80978D01*
X231428Y-79834D01*
X230675Y-78853D01*
X229693Y-78099D01*
X228550Y-77626D01*
X227323Y-77464D01*
D02*
G37*
G36*
X217323D02*
X216096Y-77626D01*
X214953Y-78099D01*
X213971Y-78853D01*
X213217Y-79834D01*
X212744Y-80978D01*
X212582Y-82205D01*
X212744Y-83432D01*
X213217Y-84575D01*
X213971Y-85557D01*
X214953Y-86310D01*
X216096Y-86784D01*
X217323Y-86945D01*
X218550Y-86784D01*
X219693Y-86310D01*
X220675Y-85557D01*
X221428Y-84575D01*
X221902Y-83432D01*
X222063Y-82205D01*
X221902Y-80978D01*
X221428Y-79834D01*
X220675Y-78853D01*
X219693Y-78099D01*
X218550Y-77626D01*
X217323Y-77464D01*
D02*
G37*
G36*
X207323D02*
X206096Y-77626D01*
X204953Y-78099D01*
X203971Y-78853D01*
X203217Y-79834D01*
X202744Y-80978D01*
X202582Y-82205D01*
X202744Y-83432D01*
X203217Y-84575D01*
X203971Y-85557D01*
X204953Y-86310D01*
X206096Y-86784D01*
X207323Y-86945D01*
X208550Y-86784D01*
X209693Y-86310D01*
X210675Y-85557D01*
X211428Y-84575D01*
X211902Y-83432D01*
X212063Y-82205D01*
X211902Y-80978D01*
X211428Y-79834D01*
X210675Y-78853D01*
X209693Y-78099D01*
X208550Y-77626D01*
X207323Y-77464D01*
D02*
G37*
G36*
X197323D02*
X196096Y-77626D01*
X194952Y-78099D01*
X193971Y-78853D01*
X193217Y-79834D01*
X192744Y-80978D01*
X192582Y-82205D01*
X192744Y-83432D01*
X193217Y-84575D01*
X193971Y-85557D01*
X194952Y-86310D01*
X196096Y-86784D01*
X197323Y-86945D01*
X198550Y-86784D01*
X199693Y-86310D01*
X200675Y-85557D01*
X201428Y-84575D01*
X201902Y-83432D01*
X202063Y-82205D01*
X201902Y-80978D01*
X201428Y-79834D01*
X200675Y-78853D01*
X199693Y-78099D01*
X198550Y-77626D01*
X197323Y-77464D01*
D02*
G37*
G36*
X187323D02*
X186096Y-77626D01*
X184952Y-78099D01*
X183971Y-78853D01*
X183217Y-79834D01*
X182744Y-80978D01*
X182582Y-82205D01*
X182744Y-83432D01*
X183217Y-84575D01*
X183971Y-85557D01*
X184952Y-86310D01*
X186096Y-86784D01*
X187323Y-86945D01*
X188550Y-86784D01*
X189693Y-86310D01*
X190675Y-85557D01*
X191428Y-84575D01*
X191902Y-83432D01*
X192063Y-82205D01*
X191902Y-80978D01*
X191428Y-79834D01*
X190675Y-78853D01*
X189693Y-78099D01*
X188550Y-77626D01*
X187323Y-77464D01*
D02*
G37*
G36*
X177323D02*
X176096Y-77626D01*
X174952Y-78099D01*
X173971Y-78853D01*
X173217Y-79834D01*
X172744Y-80978D01*
X172582Y-82205D01*
X172744Y-83432D01*
X173217Y-84575D01*
X173971Y-85557D01*
X174952Y-86310D01*
X176096Y-86784D01*
X177323Y-86945D01*
X178550Y-86784D01*
X179693Y-86310D01*
X180675Y-85557D01*
X181428Y-84575D01*
X181902Y-83432D01*
X182063Y-82205D01*
X181902Y-80978D01*
X181428Y-79834D01*
X180675Y-78853D01*
X179693Y-78099D01*
X178550Y-77626D01*
X177323Y-77464D01*
D02*
G37*
G36*
X167323D02*
X166096Y-77626D01*
X164953Y-78099D01*
X163971Y-78853D01*
X163217Y-79834D01*
X162744Y-80978D01*
X162582Y-82205D01*
X162744Y-83432D01*
X163217Y-84575D01*
X163971Y-85557D01*
X164953Y-86310D01*
X166096Y-86784D01*
X167323Y-86945D01*
X168550Y-86784D01*
X169693Y-86310D01*
X170675Y-85557D01*
X171428Y-84575D01*
X171902Y-83432D01*
X172063Y-82205D01*
X171902Y-80978D01*
X171428Y-79834D01*
X170675Y-78853D01*
X169693Y-78099D01*
X168550Y-77626D01*
X167323Y-77464D01*
D02*
G37*
G36*
X137323D02*
X136096Y-77626D01*
X134952Y-78099D01*
X133971Y-78853D01*
X133217Y-79834D01*
X132744Y-80978D01*
X132582Y-82205D01*
X132744Y-83432D01*
X133217Y-84575D01*
X133971Y-85557D01*
X134952Y-86310D01*
X136096Y-86784D01*
X137323Y-86945D01*
X138550Y-86784D01*
X139693Y-86310D01*
X140675Y-85557D01*
X141428Y-84575D01*
X141902Y-83432D01*
X142063Y-82205D01*
X141902Y-80978D01*
X141428Y-79834D01*
X140675Y-78853D01*
X139693Y-78099D01*
X138550Y-77626D01*
X137323Y-77464D01*
D02*
G37*
G36*
X127323D02*
X126096Y-77626D01*
X124952Y-78099D01*
X123971Y-78853D01*
X123217Y-79834D01*
X122744Y-80978D01*
X122582Y-82205D01*
X122744Y-83432D01*
X123217Y-84575D01*
X123971Y-85557D01*
X124952Y-86310D01*
X126096Y-86784D01*
X127323Y-86945D01*
X128550Y-86784D01*
X129693Y-86310D01*
X130675Y-85557D01*
X131428Y-84575D01*
X131902Y-83432D01*
X132063Y-82205D01*
X131902Y-80978D01*
X131428Y-79834D01*
X130675Y-78853D01*
X129693Y-78099D01*
X128550Y-77626D01*
X127323Y-77464D01*
D02*
G37*
G36*
X119012Y-89906D02*
X115736D01*
Y-92807D01*
X119012D01*
Y-89906D01*
D02*
G37*
G36*
X114736D02*
X111461D01*
Y-92807D01*
X114736D01*
Y-89906D01*
D02*
G37*
G36*
X119012Y-93807D02*
X115736D01*
Y-96709D01*
X119012D01*
Y-93807D01*
D02*
G37*
G36*
X114736D02*
X111461D01*
Y-96709D01*
X114736D01*
Y-93807D01*
D02*
G37*
G36*
X233177Y-101197D02*
Y-104618D01*
X236598D01*
X236528Y-104086D01*
X236130Y-103125D01*
X235496Y-102299D01*
X234670Y-101665D01*
X233709Y-101267D01*
X233177Y-101197D01*
D02*
G37*
G36*
X187508D02*
Y-104618D01*
X190929D01*
X190859Y-104086D01*
X190461Y-103125D01*
X189827Y-102299D01*
X189001Y-101665D01*
X188040Y-101267D01*
X187508Y-101197D01*
D02*
G37*
G36*
X278059D02*
Y-104618D01*
X281480D01*
X281410Y-104086D01*
X281012Y-103125D01*
X280378Y-102299D01*
X279553Y-101665D01*
X278591Y-101267D01*
X278059Y-101197D01*
D02*
G37*
G36*
X18898Y-95769D02*
X17599Y-95940D01*
X16389Y-96442D01*
X15349Y-97239D01*
X14552Y-98278D01*
X14051Y-99489D01*
X13880Y-100787D01*
X14051Y-102086D01*
X14552Y-103296D01*
X15349Y-104335D01*
X16389Y-105133D01*
X17599Y-105634D01*
X18898Y-105805D01*
X20196Y-105634D01*
X21407Y-105133D01*
X22446Y-104335D01*
X23243Y-103296D01*
X23745Y-102086D01*
X23916Y-100787D01*
X23745Y-99489D01*
X23243Y-98278D01*
X22446Y-97239D01*
X21407Y-96442D01*
X20196Y-95940D01*
X18898Y-95769D01*
D02*
G37*
G36*
X281480Y-105618D02*
X278059D01*
Y-109039D01*
X278591Y-108969D01*
X279553Y-108571D01*
X280378Y-107937D01*
X281012Y-107112D01*
X281410Y-106150D01*
X281480Y-105618D01*
D02*
G37*
G36*
X236598D02*
X233177D01*
Y-109039D01*
X233709Y-108969D01*
X234670Y-108571D01*
X235496Y-107937D01*
X236130Y-107112D01*
X236528Y-106150D01*
X236598Y-105618D01*
D02*
G37*
G36*
X190929D02*
X187508D01*
Y-109039D01*
X188040Y-108969D01*
X189001Y-108571D01*
X189827Y-107937D01*
X190461Y-107112D01*
X190859Y-106150D01*
X190929Y-105618D01*
D02*
G37*
G36*
X231350Y-66675D02*
X230436Y-66795D01*
X229585Y-67148D01*
X228854Y-67709D01*
X228293Y-68440D01*
X227940Y-69291D01*
X227820Y-70205D01*
X227940Y-71119D01*
X228293Y-71970D01*
X228854Y-72701D01*
X229585Y-73262D01*
X230436Y-73615D01*
X231350Y-73735D01*
X232263Y-73615D01*
X232970Y-73322D01*
X236737Y-77089D01*
X236576Y-77562D01*
X236096Y-77626D01*
X234953Y-78099D01*
X233971Y-78853D01*
X233217Y-79834D01*
X232744Y-80978D01*
X232582Y-82205D01*
X232744Y-83432D01*
X233217Y-84575D01*
X233971Y-85557D01*
X234953Y-86310D01*
X236096Y-86784D01*
X237323Y-86945D01*
X238550Y-86784D01*
X239693Y-86310D01*
X240675Y-85557D01*
X241428Y-84575D01*
X241902Y-83432D01*
X242063Y-82205D01*
X241902Y-80978D01*
X241428Y-79834D01*
X240814Y-79034D01*
X241047Y-78534D01*
X243599D01*
X243831Y-79034D01*
X243217Y-79834D01*
X242744Y-80978D01*
X242582Y-82205D01*
X242744Y-83432D01*
X243217Y-84575D01*
X243971Y-85557D01*
X244953Y-86310D01*
X246096Y-86784D01*
X247323Y-86945D01*
X248550Y-86784D01*
X249693Y-86310D01*
X250675Y-85557D01*
X251428Y-84575D01*
X251902Y-83432D01*
X252063Y-82205D01*
X251902Y-80978D01*
X251428Y-79834D01*
X250814Y-79034D01*
X251047Y-78534D01*
X253599D01*
X253832Y-79034D01*
X253217Y-79834D01*
X252744Y-80978D01*
X252582Y-82205D01*
X252744Y-83432D01*
X253217Y-84575D01*
X253971Y-85557D01*
X254953Y-86310D01*
X256096Y-86784D01*
X257323Y-86945D01*
X258550Y-86784D01*
X259693Y-86310D01*
X260675Y-85557D01*
X261428Y-84575D01*
X261902Y-83432D01*
X262063Y-82205D01*
X261902Y-80978D01*
X261428Y-79834D01*
X260814Y-79034D01*
X261047Y-78534D01*
X263599D01*
X263831Y-79034D01*
X263217Y-79834D01*
X262744Y-80978D01*
X262582Y-82205D01*
X262744Y-83432D01*
X263217Y-84575D01*
X263971Y-85557D01*
X264953Y-86310D01*
X266096Y-86784D01*
X267323Y-86945D01*
X268550Y-86784D01*
X269693Y-86310D01*
X270675Y-85557D01*
X271428Y-84575D01*
X271902Y-83432D01*
X272063Y-82205D01*
X271902Y-80978D01*
X271428Y-79834D01*
X270814Y-79034D01*
X271047Y-78534D01*
X273599D01*
X273832Y-79034D01*
X273217Y-79834D01*
X272744Y-80978D01*
X272582Y-82205D01*
X272744Y-83432D01*
X273217Y-84575D01*
X273971Y-85557D01*
X274953Y-86310D01*
X276096Y-86784D01*
X277323Y-86945D01*
X278550Y-86784D01*
X279693Y-86310D01*
X280675Y-85557D01*
X281428Y-84575D01*
X281902Y-83432D01*
X282063Y-82205D01*
X281902Y-80978D01*
X281428Y-79834D01*
X280814Y-79034D01*
X281047Y-78534D01*
X283599D01*
X283832Y-79034D01*
X283217Y-79834D01*
X282744Y-80978D01*
X282582Y-82205D01*
X282744Y-83432D01*
X283217Y-84575D01*
X283971Y-85557D01*
X284953Y-86310D01*
X286096Y-86784D01*
X287323Y-86945D01*
X288550Y-86784D01*
X289693Y-86310D01*
X290675Y-85557D01*
X291428Y-84575D01*
X291902Y-83432D01*
X292063Y-82205D01*
X291902Y-80978D01*
X291428Y-79834D01*
X290814Y-79034D01*
X291047Y-78534D01*
X293599D01*
X293831Y-79034D01*
X293217Y-79834D01*
X292744Y-80978D01*
X292582Y-82205D01*
X292744Y-83432D01*
X293217Y-84575D01*
X293971Y-85557D01*
X294953Y-86310D01*
X296096Y-86784D01*
X297096Y-86915D01*
X297285Y-87434D01*
X294516Y-90203D01*
X267323D01*
X266738Y-90319D01*
X266242Y-90651D01*
X255727Y-101165D01*
X249984D01*
Y-109071D01*
X257890D01*
Y-107487D01*
X258334Y-107152D01*
X258390Y-107152D01*
X258992Y-107937D01*
X259818Y-108571D01*
X260779Y-108969D01*
X261811Y-109105D01*
X262843Y-108969D01*
X263805Y-108571D01*
X264630Y-107937D01*
X265264Y-107112D01*
X265477Y-106596D01*
X266019D01*
X266232Y-107112D01*
X266866Y-107937D01*
X267646Y-108536D01*
Y-109772D01*
X226842D01*
Y-108536D01*
X227622Y-107937D01*
X228256Y-107112D01*
X228469Y-106596D01*
X229011D01*
X229224Y-107112D01*
X229858Y-107937D01*
X230684Y-108571D01*
X231645Y-108969D01*
X232177Y-109039D01*
Y-105118D01*
Y-101197D01*
X231645Y-101267D01*
X230684Y-101665D01*
X229858Y-102299D01*
X229224Y-103125D01*
X229011Y-103640D01*
X228469D01*
X228256Y-103125D01*
X227622Y-102299D01*
X226797Y-101665D01*
X225835Y-101267D01*
X224803Y-101131D01*
X223771Y-101267D01*
X222810Y-101665D01*
X221984Y-102299D01*
X221350Y-103125D01*
X221137Y-103640D01*
X220596D01*
X220382Y-103125D01*
X219748Y-102299D01*
X218922Y-101665D01*
X217961Y-101267D01*
X216929Y-101131D01*
X215897Y-101267D01*
X215541Y-101415D01*
X208321Y-94194D01*
X207825Y-93863D01*
X207239Y-93746D01*
X202675D01*
X197217Y-88289D01*
X196721Y-87957D01*
X196135Y-87841D01*
X165122D01*
X161554Y-84272D01*
X161902Y-83432D01*
X162063Y-82205D01*
X161902Y-80978D01*
X161428Y-79834D01*
X160675Y-78853D01*
X159693Y-78099D01*
X158550Y-77626D01*
X157323Y-77464D01*
X156096Y-77626D01*
X154953Y-78099D01*
X153971Y-78853D01*
X153217Y-79834D01*
X152744Y-80978D01*
X152582Y-82205D01*
X152744Y-83432D01*
X153217Y-84575D01*
X153971Y-85557D01*
X154953Y-86310D01*
X156096Y-86784D01*
X157323Y-86945D01*
X158550Y-86784D01*
X159391Y-86435D01*
X163052Y-90097D01*
X162845Y-90597D01*
X157878D01*
X151554Y-84272D01*
X151902Y-83432D01*
X152063Y-82205D01*
X151902Y-80978D01*
X151428Y-79834D01*
X150675Y-78853D01*
X149693Y-78099D01*
X148550Y-77626D01*
X147323Y-77464D01*
X146096Y-77626D01*
X144952Y-78099D01*
X143971Y-78853D01*
X143217Y-79834D01*
X142744Y-80978D01*
X142582Y-82205D01*
X142744Y-83432D01*
X143217Y-84575D01*
X143971Y-85557D01*
X144952Y-86310D01*
X146096Y-86784D01*
X147323Y-86945D01*
X148550Y-86784D01*
X149391Y-86435D01*
X156163Y-93207D01*
X156659Y-93539D01*
X157244Y-93655D01*
X192674D01*
X205102Y-106084D01*
Y-109071D01*
X213008D01*
Y-107487D01*
X213452Y-107152D01*
X213508Y-107152D01*
X214110Y-107937D01*
X214936Y-108571D01*
X215897Y-108969D01*
X216929Y-109105D01*
X217961Y-108969D01*
X218922Y-108571D01*
X219748Y-107937D01*
X220382Y-107112D01*
X220596Y-106596D01*
X221137D01*
X221350Y-107112D01*
X221984Y-107937D01*
X222764Y-108536D01*
Y-109772D01*
X181173D01*
Y-108536D01*
X181953Y-107937D01*
X182587Y-107112D01*
X182800Y-106596D01*
X183342D01*
X183555Y-107112D01*
X184189Y-107937D01*
X185014Y-108571D01*
X185976Y-108969D01*
X186508Y-109039D01*
Y-105118D01*
Y-101197D01*
X185976Y-101267D01*
X185014Y-101665D01*
X184189Y-102299D01*
X183555Y-103125D01*
X183342Y-103640D01*
X182800D01*
X182587Y-103125D01*
X181953Y-102299D01*
X181127Y-101665D01*
X180166Y-101267D01*
X179134Y-101131D01*
X178102Y-101267D01*
X177140Y-101665D01*
X176315Y-102299D01*
X175681Y-103125D01*
X175468Y-103640D01*
X174926D01*
X174713Y-103125D01*
X174079Y-102299D01*
X173253Y-101665D01*
X172292Y-101267D01*
X171260Y-101131D01*
X170228Y-101267D01*
X169266Y-101665D01*
X168441Y-102299D01*
X167839Y-103084D01*
X167783Y-103084D01*
X167339Y-102749D01*
Y-101165D01*
X159433D01*
Y-109071D01*
X167339D01*
Y-107487D01*
X167783Y-107152D01*
X167839Y-107152D01*
X168441Y-107937D01*
X169266Y-108571D01*
X170228Y-108969D01*
X171260Y-109105D01*
X172292Y-108969D01*
X173253Y-108571D01*
X174079Y-107937D01*
X174713Y-107112D01*
X174926Y-106596D01*
X175468D01*
X175681Y-107112D01*
X176315Y-107937D01*
X177095Y-108536D01*
Y-111811D01*
X177250Y-112591D01*
X177692Y-113253D01*
X177692Y-113253D01*
X178354Y-113695D01*
X179134Y-113850D01*
X179134Y-113850D01*
X269685D01*
X269685Y-113850D01*
X287704D01*
X288055Y-114307D01*
X288786Y-114868D01*
X289637Y-115221D01*
X290551Y-115341D01*
X291465Y-115221D01*
X292316Y-114868D01*
X293047Y-114307D01*
X293608Y-113576D01*
X293961Y-112725D01*
X294081Y-111811D01*
X293961Y-110897D01*
X293608Y-110046D01*
X293047Y-109315D01*
X292316Y-108754D01*
X291465Y-108401D01*
X290551Y-108281D01*
X289637Y-108401D01*
X288786Y-108754D01*
X288055Y-109315D01*
X287704Y-109772D01*
X271724D01*
Y-108536D01*
X272504Y-107937D01*
X273138Y-107112D01*
X273352Y-106596D01*
X273893D01*
X274106Y-107112D01*
X274740Y-107937D01*
X275566Y-108571D01*
X276527Y-108969D01*
X277059Y-109039D01*
Y-105118D01*
Y-101197D01*
X276527Y-101267D01*
X275566Y-101665D01*
X274740Y-102299D01*
X274106Y-103125D01*
X273893Y-103640D01*
X273352D01*
X273138Y-103125D01*
X272504Y-102299D01*
X271678Y-101665D01*
X270717Y-101267D01*
X269685Y-101131D01*
X268653Y-101267D01*
X268446Y-101353D01*
X268163Y-100929D01*
X273830Y-95262D01*
X295978D01*
X296563Y-95145D01*
X297059Y-94814D01*
X305604Y-86269D01*
X305936Y-85772D01*
X306052Y-85187D01*
Y-79222D01*
X305936Y-78637D01*
X305604Y-78141D01*
X299217Y-71753D01*
X298720Y-71422D01*
X298135Y-71305D01*
X242382D01*
X242053Y-70929D01*
X242113Y-70472D01*
X241993Y-69559D01*
X241640Y-68707D01*
X241079Y-67976D01*
X240348Y-67415D01*
X239496Y-67062D01*
X238583Y-66942D01*
X237669Y-67062D01*
X236818Y-67415D01*
X236087Y-67976D01*
X235525Y-68707D01*
X235269Y-69327D01*
X234821Y-69296D01*
X234751Y-69270D01*
X234407Y-68440D01*
X233846Y-67709D01*
X233115Y-67148D01*
X232263Y-66795D01*
X231350Y-66675D01*
D02*
G37*
G36*
X140764Y-103724D02*
X133374D01*
Y-109343D01*
X140764D01*
Y-103724D01*
D02*
G37*
G36*
X132374D02*
X124984D01*
Y-109343D01*
X132374D01*
Y-103724D01*
D02*
G37*
G36*
X39295Y-106185D02*
X29106D01*
Y-113541D01*
X22871D01*
X22446Y-112987D01*
X21407Y-112190D01*
X20196Y-111688D01*
X18898Y-111517D01*
X17599Y-111688D01*
X16389Y-112190D01*
X15349Y-112987D01*
X14552Y-114026D01*
X14051Y-115237D01*
X13880Y-116535D01*
X14051Y-117834D01*
X14552Y-119044D01*
X15349Y-120083D01*
X16389Y-120881D01*
X17599Y-121382D01*
X18898Y-121553D01*
X20196Y-121382D01*
X21407Y-120881D01*
X22446Y-120083D01*
X22871Y-119529D01*
X29106D01*
Y-119799D01*
X39295D01*
Y-106185D01*
D02*
G37*
G36*
X140764Y-110343D02*
X133374D01*
Y-115961D01*
X140764D01*
Y-110343D01*
D02*
G37*
G36*
X132374D02*
X124984D01*
Y-115961D01*
X132374D01*
Y-110343D01*
D02*
G37*
G36*
X58295Y-106185D02*
X48106D01*
Y-119799D01*
X58295D01*
Y-115986D01*
X64335D01*
Y-116394D01*
X71886D01*
Y-109591D01*
X64335D01*
Y-109998D01*
X58295D01*
Y-106185D01*
D02*
G37*
%LPD*%
G36*
X67862Y-16803D02*
X71862D01*
Y-13734D01*
X76913D01*
Y-15173D01*
X84031D01*
Y-13734D01*
X90705D01*
X91591Y-14620D01*
X91494Y-15354D01*
X91596Y-16129D01*
X91895Y-16851D01*
X92371Y-17471D01*
X92991Y-17947D01*
X93713Y-18246D01*
X94488Y-18348D01*
X95223Y-18252D01*
X100208Y-23237D01*
X100017Y-23699D01*
X97837D01*
X93922Y-19785D01*
X93426Y-19453D01*
X92841Y-19337D01*
X90556D01*
X90459Y-19101D01*
X89898Y-18370D01*
X89167Y-17809D01*
X88315Y-17456D01*
X87402Y-17336D01*
X86488Y-17456D01*
X85637Y-17809D01*
X84905Y-18370D01*
X84531Y-18857D01*
X84031Y-18687D01*
Y-17110D01*
X76913D01*
Y-23047D01*
X76533Y-23337D01*
X63295D01*
X61392Y-21433D01*
Y-16114D01*
X61746Y-15584D01*
X61901Y-14803D01*
Y-8803D01*
X61746Y-8023D01*
X61648Y-7876D01*
X61884Y-7435D01*
X62841D01*
X63077Y-7876D01*
X62978Y-8023D01*
X62823Y-8803D01*
Y-11303D01*
X64862D01*
X66901D01*
Y-8803D01*
X66746Y-8023D01*
X66648Y-7876D01*
X66884Y-7435D01*
X67862D01*
Y-16803D01*
D02*
G37*
G36*
X97103Y-9108D02*
X97006Y-9843D01*
X97108Y-10617D01*
X97407Y-11340D01*
X97883Y-11960D01*
X98503Y-12436D01*
X99225Y-12735D01*
X100000Y-12837D01*
X100734Y-12740D01*
X109232Y-21237D01*
X109040Y-21699D01*
X102996D01*
X97386Y-16089D01*
X97482Y-15354D01*
X97380Y-14579D01*
X97081Y-13857D01*
X96605Y-13237D01*
X95985Y-12761D01*
X95263Y-12462D01*
X94488Y-12360D01*
X93754Y-12457D01*
X92420Y-11123D01*
X91924Y-10792D01*
X91339Y-10675D01*
X84031D01*
Y-9236D01*
X76913D01*
Y-10675D01*
X71862D01*
Y-7435D01*
X95429D01*
X97103Y-9108D01*
D02*
G37*
G36*
X186252Y-29588D02*
X185701Y-29661D01*
X184849Y-30014D01*
X184118Y-30575D01*
X183557Y-31306D01*
X183459Y-31542D01*
X129533D01*
X129435Y-31306D01*
X128874Y-30575D01*
X128143Y-30014D01*
X127292Y-29661D01*
X126740Y-29588D01*
X126773Y-29088D01*
X186220D01*
X186252Y-29588D01*
D02*
G37*
%LPC*%
G36*
X66901Y-12303D02*
X65362D01*
Y-16743D01*
X65643Y-16687D01*
X66304Y-16245D01*
X66746Y-15584D01*
X66901Y-14803D01*
Y-12303D01*
D02*
G37*
G36*
X64362D02*
X62823D01*
Y-14803D01*
X62978Y-15584D01*
X63420Y-16245D01*
X64082Y-16687D01*
X64362Y-16743D01*
Y-12303D01*
D02*
G37*
%LPD*%
G36*
X239863Y-73916D02*
X240360Y-74248D01*
X240945Y-74364D01*
X297502D01*
X298151Y-75013D01*
X297960Y-75475D01*
X239449D01*
X238408Y-74434D01*
X238672Y-73991D01*
X239496Y-73882D01*
X239732Y-73785D01*
X239863Y-73916D01*
D02*
G37*
G36*
X200960Y-96357D02*
X201456Y-96689D01*
X202041Y-96805D01*
X206606D01*
X210504Y-100703D01*
X210313Y-101165D01*
X205102D01*
Y-101165D01*
X204683Y-101339D01*
X194743Y-91400D01*
X194950Y-90899D01*
X195502D01*
X200960Y-96357D01*
D02*
G37*
G36*
X271043Y-93724D02*
X263307Y-101459D01*
X262843Y-101267D01*
X261811Y-101131D01*
X260779Y-101267D01*
X260572Y-101353D01*
X260289Y-100929D01*
X267956Y-93262D01*
X270851D01*
X271043Y-93724D01*
D02*
G37*
%LPC*%
G36*
X85539Y-84135D02*
Y-89342D01*
X90747D01*
X90616Y-88348D01*
X90040Y-86956D01*
X89122Y-85760D01*
X87926Y-84842D01*
X86534Y-84265D01*
X85539Y-84135D01*
D02*
G37*
G36*
X84539D02*
X83545Y-84265D01*
X82152Y-84842D01*
X80957Y-85760D01*
X80039Y-86956D01*
X79462Y-88348D01*
X79331Y-89342D01*
X84539D01*
Y-84135D01*
D02*
G37*
G36*
X101862Y-89906D02*
X98587D01*
Y-92807D01*
X101862D01*
Y-89906D01*
D02*
G37*
G36*
X90747Y-90342D02*
X85539D01*
Y-95551D01*
X86534Y-95420D01*
X87926Y-94843D01*
X89122Y-93925D01*
X90040Y-92729D01*
X90616Y-91337D01*
X90747Y-90342D01*
D02*
G37*
G36*
X84539D02*
X79331D01*
X79462Y-91337D01*
X80039Y-92729D01*
X80957Y-93925D01*
X82152Y-94843D01*
X83545Y-95420D01*
X84539Y-95551D01*
Y-90342D01*
D02*
G37*
G36*
X101862Y-93807D02*
X98587D01*
Y-96709D01*
X101862D01*
Y-93807D01*
D02*
G37*
G36*
X91994Y-108740D02*
Y-111705D01*
X94958D01*
X94904Y-111291D01*
X94551Y-110440D01*
X93990Y-109708D01*
X93259Y-109148D01*
X92408Y-108795D01*
X91994Y-108740D01*
D02*
G37*
G36*
X90994D02*
X90580Y-108795D01*
X89729Y-109148D01*
X88998Y-109708D01*
X88437Y-110440D01*
X88084Y-111291D01*
X88030Y-111705D01*
X90994D01*
Y-108740D01*
D02*
G37*
G36*
X84760Y-109591D02*
X81484D01*
Y-112492D01*
X84760D01*
Y-109591D01*
D02*
G37*
G36*
X94958Y-112705D02*
X91994D01*
Y-115669D01*
X92408Y-115615D01*
X93259Y-115262D01*
X93990Y-114701D01*
X94551Y-113970D01*
X94904Y-113118D01*
X94958Y-112705D01*
D02*
G37*
G36*
X90994D02*
X88030D01*
X88084Y-113118D01*
X88437Y-113970D01*
X88998Y-114701D01*
X89729Y-115262D01*
X90580Y-115615D01*
X90994Y-115669D01*
Y-112705D01*
D02*
G37*
G36*
X84760Y-113492D02*
X81484D01*
Y-116394D01*
X84760D01*
Y-113492D01*
D02*
G37*
%LPD*%
D10*
X98855Y-44756D02*
X103108Y-49009D01*
X80039Y-44756D02*
X98855D01*
X170224Y-48425D02*
X177323D01*
X168980Y-49669D02*
X170224Y-48425D01*
X165666Y-49669D02*
X168980D01*
X164422Y-48425D02*
X165666Y-49669D01*
X107944Y-48425D02*
X164422D01*
X166535Y-44882D02*
X167323Y-45669D01*
X105118Y-44882D02*
X166535D01*
X107360Y-49009D02*
X107944Y-48425D01*
X103108Y-49009D02*
X107360D01*
X237795Y-46850D02*
X242677D01*
X231102Y-42126D02*
X234252Y-38976D01*
X221323Y-33134D02*
X225197Y-37008D01*
X207480Y-22441D02*
Y-21654D01*
X207055Y-21228D02*
X207480Y-21654D01*
X96063Y-5906D02*
X111386Y-21228D01*
X207055D01*
X238315Y-70205D02*
X238583Y-69938D01*
Y-70472D02*
Y-69938D01*
X231350Y-70205D02*
X232016D01*
X238816Y-77005D01*
X296803Y-4331D02*
X302523Y-10051D01*
X235197Y-4331D02*
X296803D01*
X227323Y-12205D02*
X235197Y-4331D01*
X302523Y-14104D02*
Y-10051D01*
Y-14104D02*
X305824Y-17405D01*
X234252Y-38976D02*
X240551D01*
X238315Y-70205D02*
X240945Y-72835D01*
X242677Y-46850D02*
X277323Y-12205D01*
X309824Y-45202D02*
Y-15748D01*
X307874Y-47152D02*
X309824Y-45202D01*
X307874Y-48482D02*
Y-47152D01*
X62661Y-24866D02*
X80390D01*
X59862Y-22067D02*
X62661Y-24866D01*
X59862Y-22067D02*
Y-20079D01*
X80390Y-24866D02*
X80472Y-24783D01*
X64862Y-20866D02*
Y-11803D01*
X79134Y-53150D02*
X93701D01*
X37461Y-94823D02*
X79134Y-53150D01*
X93701D02*
X102756D01*
X195276Y-23228D02*
X197638Y-25591D01*
X102362Y-23228D02*
X195276D01*
X91339Y-12205D02*
X102362Y-23228D01*
X80472Y-12205D02*
X91339D01*
X58268Y-5906D02*
X96063D01*
X299477Y-77005D02*
X302523Y-80051D01*
X238816Y-77005D02*
X299477D01*
X240551Y-38976D02*
X267323Y-12205D01*
X298135Y-72835D02*
X304523Y-79222D01*
X240945Y-72835D02*
X298135D01*
X306693Y-12617D02*
X309824Y-15748D01*
X196135Y-89370D02*
X202041Y-95276D01*
X164488Y-89370D02*
X196135D01*
X157323Y-82205D02*
X164488Y-89370D01*
X193307Y-92126D02*
X206299Y-105118D01*
X157244Y-92126D02*
X193307D01*
X147323Y-82205D02*
X157244Y-92126D01*
X207239Y-95276D02*
X216929Y-104965D01*
X202041Y-95276D02*
X207239D01*
X216929Y-105118D02*
Y-104965D01*
X206299Y-105118D02*
X209055D01*
X171260D02*
Y-104965D01*
X304523Y-85187D02*
Y-79222D01*
X295978Y-93732D02*
X304523Y-85187D01*
X273197Y-93732D02*
X295978D01*
X261811Y-105118D02*
X273197Y-93732D01*
X302523Y-84359D02*
Y-80051D01*
X295149Y-91732D02*
X302523Y-84359D01*
X267323Y-91732D02*
X295149D01*
X253937Y-105118D02*
X267323Y-91732D01*
X306693Y-12617D02*
Y-8662D01*
X37047Y-94823D02*
X37461D01*
X126378Y-33071D02*
X186614D01*
X96457Y-27559D02*
X191515D01*
X195546Y-31591D01*
X97203Y-25228D02*
X192012D01*
X196375Y-29591D01*
X94032Y-25134D02*
X96457Y-27559D01*
X89288Y-25134D02*
X94032D01*
X221323Y-33134D02*
Y-29839D01*
X218980Y-27496D02*
X221323Y-29839D01*
X215666Y-27496D02*
X218980D01*
X215572Y-27591D02*
X215666Y-27496D01*
X201213Y-27591D02*
X215572D01*
X199213Y-29591D02*
X201213Y-27591D01*
X196375Y-29591D02*
X199213D01*
X197794Y-25435D02*
Y-25353D01*
X197638Y-25591D02*
X197794Y-25435D01*
X202041Y-29591D02*
X214898D01*
X200041Y-31591D02*
X202041Y-29591D01*
X195546Y-31591D02*
X200041D01*
X92841Y-20866D02*
X97203Y-25228D01*
X87402Y-20866D02*
X92841D01*
X216803Y-31496D02*
X217323D01*
X214898Y-29591D02*
X216803Y-31496D01*
X80472Y-20079D02*
X81260Y-20866D01*
X87402D01*
X86945Y-27477D02*
X89288Y-25134D01*
X86945Y-31323D02*
Y-27477D01*
X80472Y-37795D02*
X86945Y-31323D01*
X70264Y-12205D02*
X80472D01*
X43701D02*
X51575Y-20079D01*
X59862D01*
Y-11803D01*
X54862Y-9311D02*
X58268Y-5906D01*
X54862Y-11803D02*
Y-9311D01*
X80472Y-24783D02*
Y-20079D01*
Y-29921D02*
Y-24783D01*
X69870Y-37795D02*
X80472D01*
D29*
X106496Y-109843D02*
D03*
X132874D02*
D03*
D30*
X103108Y-75984D02*
D03*
Y-62599D02*
D03*
D31*
X80472Y-37795D02*
D03*
Y-29921D02*
D03*
Y-20079D02*
D03*
Y-12205D02*
D03*
D32*
X34201Y-112992D02*
D03*
X53201D02*
D03*
D33*
X102362Y-93307D02*
D03*
X115236D02*
D03*
X80984Y-112992D02*
D03*
X68110D02*
D03*
D34*
X39764Y-27453D02*
D03*
X36024Y-37902D02*
D03*
X43504D02*
D03*
D35*
X69862Y-11803D02*
D03*
D36*
X64862D02*
D03*
Y-37803D02*
D03*
X69862D02*
D03*
X59862D02*
D03*
X54862Y-11803D02*
D03*
X59862D02*
D03*
X54862Y-37803D02*
D03*
D37*
X43701Y-12205D02*
D03*
X35827D02*
D03*
D38*
X98819Y-29134D02*
D03*
X94488Y-15354D02*
D03*
X100000Y-9843D02*
D03*
D39*
X102950Y-75827D02*
X103108Y-75984D01*
X85039Y-75827D02*
X102950D01*
X103108Y-62599D02*
X258740D01*
X85039Y-61811D02*
X85827Y-62599D01*
X103108D01*
X127165Y-54331D02*
X250551D01*
X252390Y-56170D01*
X85866Y-109843D02*
X106496D01*
X85000Y-108976D02*
X85866Y-109843D01*
X98898Y-89842D02*
X102362Y-93307D01*
X85039Y-89842D02*
X98898D01*
X103347Y-112992D02*
X106496Y-109843D01*
X85000Y-108976D02*
Y-89882D01*
X80984Y-112992D02*
X85000Y-108976D01*
X68110Y-112992D02*
X68110Y-112992D01*
X53201Y-112992D02*
X68110D01*
X254214Y-56180D02*
X287323Y-23071D01*
X254214Y-56180D02*
Y-56180D01*
X252390Y-56170D02*
X254214Y-56180D01*
X258740Y-62599D02*
X297323Y-24016D01*
Y-12205D01*
X287323Y-23071D02*
Y-12205D01*
X85000Y-89882D02*
X85039Y-89842D01*
X30658Y-116535D02*
X34201Y-112992D01*
X18898Y-116535D02*
X30658D01*
D40*
X269685Y-111811D02*
X269685Y-111811D01*
X290551D01*
X269685Y-111811D02*
Y-105118D01*
X269685Y-111811D02*
X269685Y-111811D01*
X224803Y-111811D02*
X269685D01*
X179134D02*
X224803D01*
X224803Y-111811D02*
X224803Y-111811D01*
X224803Y-111811D02*
Y-105118D01*
X179134Y-111811D02*
Y-105118D01*
Y-111811D02*
X179134Y-111811D01*
D41*
X69862Y-11803D02*
X70264Y-12205D01*
X57466Y-32053D02*
X59862Y-34449D01*
X49352Y-32053D02*
X57466D01*
X43504Y-37901D02*
X49352Y-32053D01*
X58501Y-29553D02*
X64862Y-35914D01*
X45250Y-29553D02*
X58501D01*
X36902Y-37901D02*
X45250Y-29553D01*
X59862Y-37803D02*
Y-34449D01*
X69862Y-37803D02*
X69870Y-37795D01*
X64862Y-37803D02*
Y-35914D01*
X39279Y-42126D02*
X43504Y-37901D01*
X35335Y-42126D02*
X39279D01*
X36024Y-37901D02*
X36902D01*
X25591Y-70695D02*
Y-48335D01*
X36024Y-37901D01*
X21269Y-75016D02*
X25591Y-70695D01*
X16323Y-75016D02*
X21269D01*
X6300Y-85039D02*
X16323Y-75016D01*
X28091Y-49370D02*
X35335Y-42126D01*
X28091Y-71730D02*
Y-49370D01*
X22305Y-77516D02*
X28091Y-71730D01*
X17759Y-78740D02*
X18983Y-77516D01*
X22305D01*
X17759Y-83901D02*
X18898Y-85039D01*
X17759Y-83901D02*
Y-78740D01*
D42*
X297323Y-12205D02*
D03*
X287323D02*
D03*
X277323D02*
D03*
X267323D02*
D03*
X257323D02*
D03*
X247323D02*
D03*
X237323D02*
D03*
X227323D02*
D03*
X217323D02*
D03*
X207323D02*
D03*
X197323D02*
D03*
X187323D02*
D03*
Y-82205D02*
D03*
X197323D02*
D03*
X207323D02*
D03*
X217323D02*
D03*
X227323D02*
D03*
X237323D02*
D03*
X247323D02*
D03*
X257323D02*
D03*
X267323D02*
D03*
X277323D02*
D03*
X287323D02*
D03*
X297323D02*
D03*
X177323Y-12205D02*
D03*
X167323D02*
D03*
X157323D02*
D03*
X147323D02*
D03*
X137323D02*
D03*
X127323D02*
D03*
Y-82205D02*
D03*
X137323D02*
D03*
X147323D02*
D03*
X157323D02*
D03*
X167323D02*
D03*
X177323D02*
D03*
D43*
X18898Y-6299D02*
D03*
Y-22047D02*
D03*
Y-37795D02*
D03*
Y-53543D02*
D03*
Y-69291D02*
D03*
Y-85039D02*
D03*
Y-100787D02*
D03*
Y-116535D02*
D03*
X6300Y-6299D02*
D03*
Y-22047D02*
D03*
Y-37795D02*
D03*
Y-53543D02*
D03*
Y-69291D02*
D03*
Y-85039D02*
D03*
Y-100787D02*
D03*
Y-116535D02*
D03*
D44*
X253937Y-105118D02*
D03*
X209055D02*
D03*
X163386D02*
D03*
D45*
X261811D02*
D03*
X269685D02*
D03*
X277559D02*
D03*
X224803D02*
D03*
X216929D02*
D03*
X232677D02*
D03*
X179134D02*
D03*
X171260D02*
D03*
X187008D02*
D03*
D46*
X85039Y-75827D02*
D03*
Y-89842D02*
D03*
Y-61811D02*
D03*
X37047Y-94823D02*
D03*
Y-56831D02*
D03*
D47*
X80039Y-44756D02*
D03*
X241732Y-56949D02*
D03*
X167323Y-45669D02*
D03*
X127165Y-54331D02*
D03*
X177323Y-48425D02*
D03*
X237795Y-46850D02*
D03*
X231102Y-42126D02*
D03*
X225197Y-37008D02*
D03*
X91494Y-112205D02*
D03*
X148031Y-106299D02*
D03*
X137323Y-72441D02*
D03*
X207480Y-22441D02*
D03*
X238583Y-70472D02*
D03*
X231350Y-70205D02*
D03*
X307874Y-48482D02*
D03*
X105118Y-44882D02*
D03*
X64862Y-20866D02*
D03*
X112992Y-6919D02*
D03*
X225197Y-26772D02*
D03*
X115882Y-37402D02*
D03*
X307874Y-71788D02*
D03*
X102756Y-53150D02*
D03*
X290551Y-111811D02*
D03*
X186614Y-33071D02*
D03*
X126378D02*
D03*
X197794Y-25353D02*
D03*
X217323Y-31496D02*
D03*
X305824Y-17405D02*
D03*
X90945Y-29134D02*
D03*
X87402Y-20866D02*
D03*
X29134Y-29921D02*
D03*
X306693Y-8662D02*
D03*
M02*
