G04*
G04 #@! TF.GenerationSoftware,Altium Limited,Altium Designer,18.1.7 (191)*
G04*
G04 Layer_Color=16711935*
%FSLAX25Y25*%
%MOIN*%
G70*
G01*
G75*
%ADD15R,0.05918X0.04737*%
%ADD18R,0.03359X0.05524*%
%ADD19R,0.02800X0.08800*%
%ADD20O,0.02800X0.08800*%
%ADD21R,0.04737X0.05918*%
%ADD23C,0.08200*%
%ADD24C,0.08750*%
%ADD25R,0.06706X0.06706*%
%ADD26C,0.06706*%
%ADD27C,0.10249*%
%ADD28C,0.05800*%
%ADD56R,0.07087X0.34646*%
%ADD57R,0.05524X0.03359*%
%ADD58R,0.13910X0.04737*%
%ADD59R,0.11824X0.04973*%
%ADD60R,0.09580X0.06863*%
%ADD61R,0.05446X0.04934*%
%ADD62R,0.06430X0.04343*%
%ADD63R,0.07493X0.03556*%
G36*
X300551Y-56398D02*
D01*
D02*
G37*
D15*
X165354Y-26378D02*
D03*
Y-34252D02*
D03*
X105118Y-11811D02*
D03*
Y-19685D02*
D03*
Y-29921D02*
D03*
Y-37795D02*
D03*
X297323Y-95276D02*
D03*
Y-103150D02*
D03*
X307480Y-103050D02*
D03*
Y-95175D02*
D03*
X102756Y-94095D02*
D03*
Y-86221D02*
D03*
D18*
X43307Y-24122D02*
D03*
X39567Y-13673D02*
D03*
X47047D02*
D03*
D19*
X94902Y-37803D02*
D03*
D20*
Y-11803D02*
D03*
X89902D02*
D03*
X84901D02*
D03*
X79901D02*
D03*
Y-37803D02*
D03*
X84901D02*
D03*
X89902D02*
D03*
D21*
X129134Y-96457D02*
D03*
X121260D02*
D03*
X110236Y-111024D02*
D03*
X102362D02*
D03*
X59842Y-57874D02*
D03*
X51968D02*
D03*
X70079Y-37008D02*
D03*
X62205D02*
D03*
D23*
X297323Y-12205D02*
D03*
X287323D02*
D03*
X277323D02*
D03*
X267323D02*
D03*
X257323D02*
D03*
X247323D02*
D03*
X237323D02*
D03*
X227323D02*
D03*
X217323D02*
D03*
X207323D02*
D03*
X197323D02*
D03*
X187323D02*
D03*
Y-82205D02*
D03*
X197323D02*
D03*
X207323D02*
D03*
X217323D02*
D03*
X227323D02*
D03*
X237323D02*
D03*
X247323D02*
D03*
X257323D02*
D03*
X267323D02*
D03*
X277323D02*
D03*
X287323D02*
D03*
X297323D02*
D03*
X177323Y-12205D02*
D03*
X167323D02*
D03*
X157323D02*
D03*
X147323D02*
D03*
X137323D02*
D03*
X127323D02*
D03*
Y-82205D02*
D03*
X137323D02*
D03*
X147323D02*
D03*
X157323D02*
D03*
X167323D02*
D03*
X177323D02*
D03*
D24*
X18898Y-6299D02*
D03*
Y-22047D02*
D03*
Y-37795D02*
D03*
Y-53543D02*
D03*
Y-69291D02*
D03*
Y-85039D02*
D03*
Y-100787D02*
D03*
Y-116535D02*
D03*
X6300Y-6299D02*
D03*
Y-22047D02*
D03*
Y-37795D02*
D03*
Y-53543D02*
D03*
Y-69291D02*
D03*
Y-85039D02*
D03*
Y-100787D02*
D03*
Y-116535D02*
D03*
D25*
X253937Y-105118D02*
D03*
X209055D02*
D03*
X163386D02*
D03*
D26*
X261811D02*
D03*
X269685D02*
D03*
X277559D02*
D03*
X224803D02*
D03*
X216929D02*
D03*
X232677D02*
D03*
X179134D02*
D03*
X171260D02*
D03*
X187008D02*
D03*
D27*
X85039Y-75827D02*
D03*
Y-89842D02*
D03*
Y-61811D02*
D03*
X37047Y-94823D02*
D03*
Y-56831D02*
D03*
D28*
X80039Y-44756D02*
D03*
X241732Y-56949D02*
D03*
X167323Y-45669D02*
D03*
X127165Y-54331D02*
D03*
X177323Y-48425D02*
D03*
X237795Y-46850D02*
D03*
X231102Y-42126D02*
D03*
X225197Y-37008D02*
D03*
X91494Y-112205D02*
D03*
X148031Y-106299D02*
D03*
X137323Y-72441D02*
D03*
X207480Y-22441D02*
D03*
X238583Y-70472D02*
D03*
X231350Y-70205D02*
D03*
X307874Y-48482D02*
D03*
X105118Y-44882D02*
D03*
X64862Y-20866D02*
D03*
X112992Y-6919D02*
D03*
X225197Y-26772D02*
D03*
X115882Y-37402D02*
D03*
X307874Y-71788D02*
D03*
X102756Y-53150D02*
D03*
X290551Y-111811D02*
D03*
X186614Y-33071D02*
D03*
X126378D02*
D03*
X197794Y-25353D02*
D03*
X217323Y-31496D02*
D03*
X305824Y-17405D02*
D03*
X90945Y-29134D02*
D03*
X87402Y-20866D02*
D03*
X29134Y-29921D02*
D03*
X306693Y-8662D02*
D03*
D56*
X298976Y-41043D02*
D03*
D57*
X131315Y-113189D02*
D03*
Y-105709D02*
D03*
X120866Y-109449D02*
D03*
X142020Y-30102D02*
D03*
X152469Y-26362D02*
D03*
Y-33843D02*
D03*
D58*
X253839Y-21122D02*
D03*
Y-73130D02*
D03*
D59*
X296220Y-21634D02*
D03*
D60*
X298130Y-71870D02*
D03*
D61*
X248031Y-46850D02*
D03*
D62*
X248721Y-63642D02*
D03*
D63*
X298976Y-26280D02*
D03*
Y-30610D02*
D03*
Y-34941D02*
D03*
Y-39272D02*
D03*
Y-43602D02*
D03*
Y-47933D02*
D03*
Y-52264D02*
D03*
Y-56595D02*
D03*
M02*
